<?xml version="1.0" standalone="no"?>
<!DOCTYPE svg PUBLIC "-//W3C//DTD SVG 20010904//EN"
 "http://www.w3.org/TR/2001/REC-SVG-20010904/DTD/svg10.dtd">
<svg version="1.0" xmlns="http://www.w3.org/2000/svg"
 width="100.000000pt" height="100.000000pt" viewBox="0 0 100.000000 100.000000"
 preserveAspectRatio="xMidYMid meet">
<metadata>
Created by potrace 1.10, written by Peter Selinger 2001-2011
</metadata>
<g transform="translate(0.000000,100.000000) scale(0.100000,-0.100000)"
fill="#ea2828" stroke="none">
<path d="M658 751 c-46 -10 -101 -51 -135 -102 -22 -33 -25 -46 -20 -88 6 -49
37 -124 56 -136 6 -3 8 13 4 44 -7 59 10 132 39 172 32 42 98 65 148 50 35
-10 90 -60 90 -82 0 -5 18 -9 41 -9 37 0 40 2 34 23 -30 99 -137 153 -257 128z"/>
<path d="M96 723 c9 -16 48 -71 85 -125 l67 -96 -75 -109 c-105 -153 -102
-143 -50 -143 l44 0 57 85 c31 46 60 87 65 89 4 3 35 -34 67 -82 l60 -87 69
-3 c69 -2 70 -2 40 13 -72 39 -118 102 -136 190 -10 52 -10 68 5 120 21 72 45
107 99 146 l40 29 -59 0 -59 0 -59 -90 c-32 -49 -62 -88 -66 -85 -5 3 -34 43
-65 90 l-57 85 -45 0 -45 0 18 -27z"/>
<path d="M832 390 c-42 -92 -157 -126 -256 -76 l-48 24 24 -25 c36 -39 96 -63
161 -63 91 0 158 43 192 122 23 56 20 68 -18 68 -29 0 -34 -5 -55 -50z"/>
</g>
</svg>
